<svg xmlns="http://www.w3.org/2000/svg" viewBox="0 0 888 470" width="888" height="470"><defs><marker id="a" viewBox="0 0 10 10" refX="9" refY="5" markerWidth="5" markerHeight="5" orient="auto"><path d="M0 0L10 5L0 10z" fill="#8A1C2B"/></marker></defs><text x="0" y="40" font-size="36" fill="#8A1C2B" text-anchor="start" font-weight="bold" font-family="NanumGothic, Nanum Gothic, sans-serif">모기 잡는 데 대포를 쏜다?</text>
<circle cx="150" cy="330" r="54" fill="#FFFFFF" stroke="#141414" stroke-width="8"/>
<circle cx="150" cy="330" r="12" fill="#141414"/>
<polygon points="100,300 130,250 360,130 400,170 170,290 150,330" fill="#141414"/>
<rect x="60" y="326" width="180" height="22" rx="6" fill="#141414"/>
<circle cx="420" cy="140" r="18" fill="#8A1C2B"/>
<path d="M440 130 q150 -110 290 20" fill="none" stroke="#B9B9B4" stroke-width="4" stroke-dasharray="12 10"/>
<ellipse cx="760" cy="168" rx="14" ry="8" fill="#8A1C2B"/>
<ellipse cx="748" cy="156" rx="12" ry="5" fill="none" stroke="#8A1C2B" stroke-width="3" transform="rotate(-30 748 156)"/>
<ellipse cx="772" cy="156" rx="12" ry="5" fill="none" stroke="#8A1C2B" stroke-width="3" transform="rotate(30 772 156)"/>
<path d="M750 174 l-14 16 M760 176 l0 18 M770 174 l14 16 M774 166 l22 -4" stroke="#8A1C2B" stroke-width="3" fill="none"/>
<text x="60" y="410" font-size="30" fill="#141414" text-anchor="start" font-weight="bold" font-family="NanumGothic, Nanum Gothic, sans-serif">거대 LLM = 대포</text>
<text x="60" y="444" font-size="25" fill="#6B6B68" text-anchor="start" font-weight="normal" font-family="NanumGothic, Nanum Gothic, sans-serif">수억 명에게 매초 쏜다면 비용 폭탄</text>
<text x="620" y="230" font-size="28" fill="#8A1C2B" text-anchor="start" font-weight="bold" font-family="NanumGothic, Nanum Gothic, sans-serif">영화 순위 몇 개 = 모기</text></svg>