<svg xmlns="http://www.w3.org/2000/svg" viewBox="0 0 900 460" role="img" aria-labelledby="fig-007-title">
  <style><![CDATA[
:root { --cobalt-600:#2563eb; }
.fill-white { fill: #ffffff; }
.fill-50 { fill: #eff6ff; }
.fill-100 { fill: #dbeafe; }
.fill-300 { fill: #93c5fd; }
.stroke { stroke: #2563eb; stroke-width: 2; stroke-linejoin: round; stroke-linecap: round; fill: none; }
.stroke-muted { stroke: #64748b; stroke-width: 1.5; stroke-linejoin: round; stroke-linecap: round; fill: none; }
.dash { stroke-dasharray: 5 7; }
.fill-white.stroke { fill: #ffffff; stroke: #2563eb; stroke-width: 2; }
.fill-white.stroke-muted { fill: #ffffff; stroke: #64748b; stroke-width: 1.5; }
.fill-50.stroke { fill: #eff6ff; stroke: #2563eb; stroke-width: 2; }
.fill-100.stroke { fill: #dbeafe; stroke: #2563eb; stroke-width: 2; }
.fill-100.stroke-muted { fill: #dbeafe; stroke: #64748b; stroke-width: 1.5; }
.fill-300.stroke { fill: #93c5fd; stroke: #2563eb; stroke-width: 2; }
.svg-label { fill: #0f172a; font: 700 14px -apple-system, BlinkMacSystemFont, "Segoe UI", Arial, sans-serif; letter-spacing: .02em; }
.svg-label-muted { fill: #475569; font: 600 12px -apple-system, BlinkMacSystemFont, "Segoe UI", Arial, sans-serif; letter-spacing: .02em; }
text { paint-order: stroke; stroke: none; }
path, polygon, rect, ellipse, line { vector-effect: non-scaling-stroke; }
]]></style>
    <title id="fig-007-title">Planner, parallel tool execution, evidence normalization, and synthesis</title>
    <defs>
      <marker id="arrow-007" viewBox="0 0 10 10" refX="8" refY="5" markerWidth="5" markerHeight="5" orient="auto">
        <path d="M0 0 10 5 0 10Z" fill="var(--cobalt-600)"/>
      </marker>
    </defs>
    <g class="stroke">
      <rect class="fill-white" x="58" y="188" width="142" height="64"/>
      <rect class="fill-100" x="274" y="188" width="142" height="64"/>
      <rect class="fill-white" x="492" y="48" width="150" height="52"/>
      <rect class="fill-white" x="492" y="122" width="150" height="52"/>
      <rect class="fill-white" x="492" y="196" width="150" height="52"/>
      <rect class="fill-white" x="492" y="270" width="150" height="52"/>
      <rect class="fill-white" x="492" y="344" width="150" height="52"/>
      <rect class="fill-100" x="704" y="142" width="148" height="64"/>
      <rect class="fill-100" x="704" y="264" width="148" height="64"/>
      <path marker-end="url(#arrow-007)" d="M200 220H266"/>
      <path marker-end="url(#arrow-007)" d="M416 220H458V74H484"/>
      <path marker-end="url(#arrow-007)" d="M416 220H458V148H484"/>
      <path marker-end="url(#arrow-007)" d="M416 220H484"/>
      <path marker-end="url(#arrow-007)" d="M416 220H458V296H484"/>
      <path marker-end="url(#arrow-007)" d="M416 220H458V370H484"/>
      <path marker-end="url(#arrow-007)" d="M642 74H674V174H696"/>
      <path marker-end="url(#arrow-007)" d="M642 148H696"/>
      <path marker-end="url(#arrow-007)" d="M642 222H674V174H696"/>
      <path marker-end="url(#arrow-007)" d="M642 296H674V296H696"/>
      <path marker-end="url(#arrow-007)" d="M642 370H674V296H696"/>
      <path marker-end="url(#arrow-007)" d="M778 206V256"/>
    </g>
    <g class="svg-label" text-anchor="middle" dominant-baseline="middle">
      <text x="129" y="220">QUESTION</text>
      <text x="345" y="220">PLANNER</text>
      <text x="567" y="74">SEARCH</text>
      <text x="567" y="148">SEARCH_SLACK</text>
      <text x="567" y="222">SEARCH_CODE</text>
      <text x="567" y="296">RECENT_PRS</text>
      <text x="567" y="370">WHO_KNOWS</text>
      <text x="778" y="166">EVIDENCE</text>
      <text x="778" y="288">SYNTHESIS</text>
    </g>
    <g class="svg-label-muted" text-anchor="middle" dominant-baseline="middle">
      <text x="778" y="190">NORMALIZED ROWS</text>
      <text x="778" y="312">ANSWER + CITATIONS</text>
    </g>
  </svg>