<svg xmlns="http://www.w3.org/2000/svg" viewBox="0 0 760 420" role="img" aria-labelledby="fig-010-title">
  <style><![CDATA[
:root { --cobalt-600:#2563eb; }
.fill-white { fill: #ffffff; }
.fill-50 { fill: #eff6ff; }
.fill-100 { fill: #dbeafe; }
.fill-300 { fill: #93c5fd; }
.stroke { stroke: #2563eb; stroke-width: 2; stroke-linejoin: round; stroke-linecap: round; fill: none; }
.stroke-muted { stroke: #64748b; stroke-width: 1.5; stroke-linejoin: round; stroke-linecap: round; fill: none; }
.dash { stroke-dasharray: 5 7; }
.fill-white.stroke { fill: #ffffff; stroke: #2563eb; stroke-width: 2; }
.fill-white.stroke-muted { fill: #ffffff; stroke: #64748b; stroke-width: 1.5; }
.fill-50.stroke { fill: #eff6ff; stroke: #2563eb; stroke-width: 2; }
.fill-100.stroke { fill: #dbeafe; stroke: #2563eb; stroke-width: 2; }
.fill-100.stroke-muted { fill: #dbeafe; stroke: #64748b; stroke-width: 1.5; }
.fill-300.stroke { fill: #93c5fd; stroke: #2563eb; stroke-width: 2; }
.svg-label { fill: #0f172a; font: 700 14px -apple-system, BlinkMacSystemFont, "Segoe UI", Arial, sans-serif; letter-spacing: .02em; }
.svg-label-muted { fill: #475569; font: 600 12px -apple-system, BlinkMacSystemFont, "Segoe UI", Arial, sans-serif; letter-spacing: .02em; }
text { paint-order: stroke; stroke: none; }
path, polygon, rect, ellipse, line { vector-effect: non-scaling-stroke; }
]]></style>
    <title id="fig-010-title">Projects reference shared data sources without duplicating them</title>
    <defs>
      <marker id="arrow-010" viewBox="0 0 10 10" refX="8" refY="5" markerWidth="5" markerHeight="5" orient="auto">
        <path d="M0 0 10 5 0 10Z" fill="var(--cobalt-600)"/>
      </marker>
    </defs>
    <g class="stroke">
      <rect class="fill-100" x="56" y="76" width="214" height="86"/>
      <rect class="fill-100" x="56" y="258" width="214" height="86"/>
      <rect class="fill-white" x="476" y="36" width="214" height="54"/>
      <rect class="fill-white" x="476" y="112" width="214" height="54"/>
      <rect class="fill-white" x="476" y="188" width="214" height="54"/>
      <rect class="fill-white" x="476" y="264" width="214" height="54"/>
      <rect class="fill-white" x="476" y="340" width="214" height="54"/>
      <path marker-end="url(#arrow-010)" d="M270 108H404V63H468"/>
      <path marker-end="url(#arrow-010)" d="M270 120H404V139H468"/>
      <path marker-end="url(#arrow-010)" d="M270 132H404V215H468"/>
      <path marker-end="url(#arrow-010)" d="M270 290H404V215H468"/>
      <path marker-end="url(#arrow-010)" d="M270 302H404V291H468"/>
      <path marker-end="url(#arrow-010)" d="M270 314H404V367H468"/>
    </g>
    <g class="svg-label" text-anchor="middle" dominant-baseline="middle">
      <text x="163" y="108">COMPILER PROJECT</text>
      <text x="163" y="290">PLATFORM PROJECT</text>
      <text x="583" y="63">COMPILER SLACK</text>
      <text x="583" y="139">MONOLITH REPO</text>
      <text x="583" y="215">SHARED INCIDENTS</text>
      <text x="583" y="291">PLATFORM REPO</text>
      <text x="583" y="367">CLOUD RUNBOOKS</text>
    </g>
    <g class="svg-label-muted" text-anchor="middle" dominant-baseline="middle">
      <text x="163" y="132">DEFAULT QUERY SCOPE</text>
      <text x="163" y="314">DEFAULT QUERY SCOPE</text>
    </g>
  </svg>