<svg xmlns="http://www.w3.org/2000/svg" viewBox="0 0 900 430" role="img" aria-labelledby="fig-003-title">
  <style><![CDATA[
:root { --cobalt-600:#2563eb; }
.fill-white { fill: #ffffff; }
.fill-50 { fill: #eff6ff; }
.fill-100 { fill: #dbeafe; }
.fill-300 { fill: #93c5fd; }
.stroke { stroke: #2563eb; stroke-width: 2; stroke-linejoin: round; stroke-linecap: round; fill: none; }
.stroke-muted { stroke: #64748b; stroke-width: 1.5; stroke-linejoin: round; stroke-linecap: round; fill: none; }
.dash { stroke-dasharray: 5 7; }
.fill-white.stroke { fill: #ffffff; stroke: #2563eb; stroke-width: 2; }
.fill-white.stroke-muted { fill: #ffffff; stroke: #64748b; stroke-width: 1.5; }
.fill-50.stroke { fill: #eff6ff; stroke: #2563eb; stroke-width: 2; }
.fill-100.stroke { fill: #dbeafe; stroke: #2563eb; stroke-width: 2; }
.fill-100.stroke-muted { fill: #dbeafe; stroke: #64748b; stroke-width: 1.5; }
.fill-300.stroke { fill: #93c5fd; stroke: #2563eb; stroke-width: 2; }
.svg-label { fill: #0f172a; font: 700 14px -apple-system, BlinkMacSystemFont, "Segoe UI", Arial, sans-serif; letter-spacing: .02em; }
.svg-label-muted { fill: #475569; font: 600 12px -apple-system, BlinkMacSystemFont, "Segoe UI", Arial, sans-serif; letter-spacing: .02em; }
text { paint-order: stroke; stroke: none; }
path, polygon, rect, ellipse, line { vector-effect: non-scaling-stroke; }
]]></style>
    <title id="fig-003-title">Slack event flow from Socket Mode through distillation and embedding</title>
    <defs>
      <marker id="arrow-003" viewBox="0 0 10 10" refX="8" refY="5" markerWidth="5" markerHeight="5" orient="auto">
        <path d="M0 0 10 5 0 10Z" fill="var(--cobalt-600)"/>
      </marker>
    </defs>
    <g class="stroke">
      <rect class="fill-white" x="38" y="172" width="132" height="58"/>
      <polygon class="fill-100" points="232,201 282,157 332,201 282,245"/>
      <rect class="fill-white" x="398" y="76" width="154" height="58"/>
      <rect class="fill-white" x="386" y="172" width="178" height="58"/>
      <rect class="fill-white" x="386" y="268" width="178" height="58"/>
      <rect class="fill-100" x="636" y="172" width="152" height="58"/>
      <rect class="fill-white" x="646" y="64" width="132" height="52"/>
      <rect class="fill-white" x="646" y="274" width="132" height="52"/>
      <rect class="fill-white" x="646" y="350" width="132" height="52"/>
      <path marker-end="url(#arrow-003)" d="M170 201H224"/>
      <path marker-end="url(#arrow-003)" d="M282 157V105H390"/>
      <path marker-end="url(#arrow-003)" d="M332 201H378"/>
      <path marker-end="url(#arrow-003)" d="M475 230V260"/>
      <path marker-end="url(#arrow-003)" d="M564 297H598V201H628"/>
      <path marker-end="url(#arrow-003)" d="M712 172V124"/>
      <path marker-end="url(#arrow-003)" d="M712 230V266"/>
      <path marker-end="url(#arrow-003)" d="M736 230V342"/>
    </g>
    <g class="svg-label" text-anchor="middle" dominant-baseline="middle">
      <text x="104" y="201">SOCKET EVENT</text>
      <text x="282" y="201">ROUTE</text>
      <text x="475" y="105">BOT REPLY</text>
      <text x="475" y="201">REINGEST_THREAD</text>
      <text x="475" y="297">UPSERT THREAD</text>
      <text x="712" y="201">SYNC_WORKER</text>
      <text x="712" y="90">DISTILL</text>
      <text x="712" y="300">THREAD VECTOR</text>
      <text x="712" y="376">BURST VECTORS</text>
    </g>
    <g class="svg-label-muted">
      <text x="376" y="48">@MENTION / DM</text>
      <text x="368" y="156">TRACKED CHANNEL</text>
      <text x="410" y="350">RESET WATERMARKS</text>
    </g>
  </svg>