<svg xmlns="http://www.w3.org/2000/svg" viewBox="0 0 900 760" role="img" aria-labelledby="fig-001-title fig-001-desc" data-hero-stack>
    <title id="fig-001-title">Exploded vertical stack of the internal knowledge base</title>
    <desc id="fig-001-desc">Sources feed distillation, embeddings, retrieval, fusion, and synthesis layers.</desc>
    <defs>
      <marker id="arrow-001" viewBox="0 0 10 10" refX="8" refY="5" markerWidth="5" markerHeight="5" orient="auto-start-reverse">
        <path d="M0 0 10 5 0 10Z" fill="var(--cobalt-600)"/>
      </marker>
    </defs>
    <g class="stroke-muted dash">
      <path d="M235 104V656"/>
      <path d="M665 104V656"/>
      <path d="M450 152V608"/>
    </g>
    <g class="hero-layer">
      <polygon class="fill-50 stroke" points="235,656 450,608 665,656 450,704"/>
      <polygon class="fill-100 stroke-muted" points="235,656 450,704 450,724 235,676"/>
      <polygon class="fill-100 stroke-muted" points="450,704 665,656 665,676 450,724"/>
      <path class="fill-white stroke" d="M414 634H458L476 648V676H414Z"/>
      <path class="stroke" d="M458 634V648H476"/>
      <path class="stroke-muted" d="M424 656H466M424 663H466M424 670H450"/>
      <rect class="fill-white stroke-muted" x="486" y="652" width="24" height="13"/>
      <rect class="fill-white stroke-muted" x="514" y="652" width="24" height="13"/>
      <text class="svg-label-muted" font-size="8" x="495" y="662">1</text>
      <text class="svg-label-muted" font-size="8" x="523" y="662">2</text>
      <text class="svg-label" x="712" y="646">SYNTHESIS</text>
      <text class="svg-label-muted" x="712" y="670">ANSWER + CITATIONS</text>
      <path class="stroke" marker-end="url(#arrow-001)" d="M712 656H674"/>
    </g>
    <g class="hero-layer">
      <polygon class="fill-100 stroke" points="235,550 450,502 665,550 450,598"/>
      <polygon class="fill-50 stroke-muted" points="235,550 450,598 450,610 235,562"/>
      <polygon class="fill-50 stroke-muted" points="450,598 665,550 665,562 450,610"/>
      <text class="svg-label" x="36" y="540">FUSION + RERANK</text>
      <text class="svg-label-muted" x="36" y="564">RRF (K=60) -&gt; LLM RERANK</text>
      <path class="stroke" marker-end="url(#arrow-001)" d="M196 550H226"/>
    </g>
    <g class="hero-layer">
      <polygon class="fill-50 stroke" points="235,442 450,394 665,442 450,490"/>
      <polygon class="fill-100 stroke-muted" points="235,442 450,490 450,510 235,462"/>
      <polygon class="fill-100 stroke-muted" points="450,490 665,442 665,462 450,510"/>
      <polygon class="fill-white stroke" points="291.4,441.2 446.2,406.6 458.1,409.2 303.3,443.8"/>
      <polygon class="fill-50 stroke" points="321.5,447.9 476.3,413.3 488.2,416 333.4,450.5"/>
      <polygon class="fill-white stroke" points="351.6,454.6 506.4,420 518.3,422.7 363.5,457.2"/>
      <polygon class="fill-50 stroke" points="381.7,461.3 536.5,426.8 548.4,429.4 393.6,464"/>
      <polygon class="fill-white stroke" points="411.8,468 566.6,433.5 578.5,436.1 423.7,470.7"/>
      <polygon class="fill-50 stroke" points="441.9,474.8 596.7,440.2 608.6,442.8 453.8,477.4"/>
      <text class="svg-label" x="712" y="432">RETRIEVAL</text>
      <text class="svg-label-muted" x="712" y="456">SIX LISTS IN PARALLEL</text>
      <path class="stroke" marker-end="url(#arrow-001)" d="M712 442H674"/>
    </g>
    <g class="hero-layer">
      <polygon class="fill-100 stroke" points="235,322 450,274 665,322 450,370"/>
      <polygon class="fill-100 stroke-muted" points="235,322 450,370 450,390 235,342"/>
      <polygon class="fill-100 stroke-muted" points="450,370 665,322 665,342 450,390"/>
      <ellipse class="fill-300 stroke" opacity="0.55" cx="450" cy="322" rx="150" ry="34"/>
      <ellipse class="stroke-muted" cx="450" cy="322" rx="95" ry="21"/>
      <ellipse class="fill-white stroke" cx="450" cy="322" rx="20" ry="4.5"/>
      <path class="stroke-muted" d="M469 320.5 591 310"/>
      <text class="svg-label" x="36" y="312">EMBEDDINGS</text>
      <text class="svg-label-muted" x="36" y="336">PGVECTOR - 3072-DIM - HNSW</text>
      <path class="stroke" marker-end="url(#arrow-001)" d="M196 322H226"/>
    </g>
    <g class="hero-layer">
      <polygon class="fill-50 stroke" points="235,202 450,154 665,202 450,250"/>
      <polygon class="fill-100 stroke-muted" points="235,202 450,250 450,270 235,222"/>
      <polygon class="fill-100 stroke-muted" points="450,250 665,202 665,222 450,270"/>
      <ellipse class="fill-50 stroke" cx="450" cy="190" rx="40" ry="10"/>
      <path class="stroke" d="M410 190 444 216V232M490 190 456 216V232"/>
      <path class="stroke-muted" d="M450 238V244"/>
      <text class="svg-label" x="712" y="192">DISTILLATION</text>
      <text class="svg-label-muted" x="712" y="216">LLM EXTRACTORS</text>
      <path class="stroke" marker-end="url(#arrow-001)" d="M712 202H674"/>
    </g>
    <g class="hero-layer">
      <polygon class="fill-50 stroke" points="235,84 450,36 665,84 450,132"/>
      <polygon class="fill-100 stroke-muted" points="235,84 450,132 450,152 235,104"/>
      <polygon class="fill-100 stroke-muted" points="450,132 665,84 665,104 450,152"/>
      <polygon class="fill-white stroke" points="408,62.4 450,52.4 492,62.4 450,72.4"/>
      <polygon class="fill-100 stroke-muted" points="408,62.4 450,72.4 450,78.4 408,68.4"/>
      <polygon class="fill-100 stroke-muted" points="450,72.4 492,62.4 492,68.4 450,78.4"/>
      <polygon class="fill-white stroke" points="504.8,84 546.8,74 588.8,84 546.8,94"/>
      <polygon class="fill-100 stroke-muted" points="504.8,84 546.8,94 546.8,100 504.8,90"/>
      <polygon class="fill-100 stroke-muted" points="546.8,94 588.8,84 588.8,90 546.8,100"/>
      <polygon class="fill-white stroke" points="408,105.6 450,95.6 492,105.6 450,115.6"/>
      <polygon class="fill-100 stroke-muted" points="408,105.6 450,115.6 450,121.6 408,111.6"/>
      <polygon class="fill-100 stroke-muted" points="450,115.6 492,105.6 492,111.6 450,121.6"/>
      <polygon class="fill-white stroke" points="311.2,84 353.2,74 395.2,84 353.2,94"/>
      <polygon class="fill-100 stroke-muted" points="311.2,84 353.2,94 353.2,100 311.2,90"/>
      <polygon class="fill-100 stroke-muted" points="353.2,94 395.2,84 395.2,90 353.2,100"/>
      <text class="svg-label" x="36" y="74">SOURCES</text>
      <text class="svg-label-muted" x="36" y="98">SLACK - WIKI - CODE - INCIDENTS</text>
      <path class="stroke" marker-end="url(#arrow-001)" d="M196 84H226"/>
    </g>
  </svg>